<svg width="1125" height="850" viewBox="0 0 1125 850" fill="none" xmlns="http://www.w3.org/2000/svg">
<g clip-path="url(#clip0_5_4)">
<path d="M959.186 572.901V713.079H689.18V572.901H959.186ZM965.366 566.72H683V719.26H965.366V566.72Z" fill="black"/>
<rect x="412" y="571.72" width="272" height="142" fill="black"/>
<path d="M753.684 640.72H753.908L773.732 603.76H784.148L758.388 651.136V682.72H748.98V651.136L723.22 603.76H733.636L753.46 640.72H753.684ZM824.205 671.408H824.429L845.037 603.76H855.229L830.589 682.72H824.205H817.821L793.181 603.76H803.373L823.981 671.408H824.205ZM870.421 682.72V603.76H879.941H894.501C909.621 603.76 919.701 611.936 919.701 626.16C919.701 637.36 913.205 645.088 902.789 647.664L923.621 682.72H912.869L893.045 648.56H879.941V682.72H870.421ZM879.941 612.72V639.6H894.501C905.141 639.6 910.181 634.56 910.181 626.16C910.181 617.76 905.141 612.72 894.501 612.72H879.941Z" fill="black"/>
<path d="M682.584 572.904V713.082H412.578V572.904H682.584ZM688.764 566.723H406.398V719.263H688.764V566.723Z" fill="black"/>
<path d="M505.711 604.124H515.908L504.166 682.804H493.042L483.092 647.141L472.895 682.804H461.771L450.029 604.124H460.226L468.631 667.29L478.581 629.588H487.542L497.492 667.29L505.711 604.124ZM572.765 631.504C577.281 637.036 579.631 644.022 579.377 651.159C579.444 652.86 579.299 654.562 578.945 656.227H535.684C535.771 660.518 537.344 664.647 540.134 667.908C541.873 669.909 544.032 671.5 546.457 672.569C548.882 673.637 551.514 674.156 554.163 674.089C557.606 674.052 560.991 673.192 564.034 671.579C567.077 669.966 569.689 667.648 571.652 664.818L578.883 669.33C576.382 673.651 572.771 677.225 568.425 679.681C564.078 682.137 559.154 683.386 554.163 683.298C550.412 683.465 546.666 682.86 543.158 681.52C539.65 680.181 536.454 678.135 533.769 675.511C528.652 669.317 525.858 661.531 525.87 653.496C525.881 645.462 528.697 637.684 533.83 631.504C536.521 628.849 539.719 626.763 543.234 625.372C546.749 623.981 550.508 623.313 554.286 623.407C557.773 623.308 561.239 623.982 564.434 625.382C567.629 626.782 570.474 628.873 572.765 631.504ZM535.684 647.821H569.613C569.632 644.062 568.218 640.437 565.658 637.685C564.079 636.159 562.21 634.968 560.16 634.182C558.111 633.396 555.924 633.032 553.73 633.111C551.286 633.052 548.854 633.486 546.582 634.389C544.309 635.292 542.242 636.644 540.505 638.365C537.924 640.854 536.323 644.188 535.993 647.759L535.684 647.821ZM650.757 653.446C651.18 661.347 648.696 669.13 643.773 675.325C641.34 678.01 638.345 680.127 635.003 681.527C631.66 682.926 628.05 683.573 624.43 683.422C621.047 683.577 617.681 682.863 614.652 681.348C611.623 679.833 609.032 677.569 607.126 674.769L604.963 682.804H597.299V604H607.311V631.504C609.298 628.787 611.934 626.611 614.979 625.175C618.023 623.739 621.379 623.089 624.739 623.284C628.348 623.167 631.94 623.842 635.26 625.262C638.581 626.682 641.55 628.813 643.959 631.504C648.925 637.682 651.454 645.466 651.066 653.384L650.757 653.446ZM610.463 638.735C607.311 642.976 605.698 648.165 605.89 653.446C605.699 658.764 607.31 663.991 610.463 668.279C611.946 670.115 613.834 671.583 615.978 672.569C618.121 673.555 620.464 674.033 622.823 673.966C625.317 674.123 627.816 673.722 630.135 672.791C632.455 671.861 634.539 670.425 636.234 668.588C639.595 664.325 641.307 658.993 641.054 653.569C641.316 648.182 639.602 642.885 636.234 638.674C634.577 636.847 632.539 635.408 630.264 634.457C627.99 633.507 625.533 633.068 623.07 633.173C620.737 633.092 618.416 633.546 616.284 634.499C614.153 635.453 612.268 636.881 610.772 638.674L610.463 638.735Z" fill="white"/>
<path d="M535.808 186.981C544.785 186.981 552.062 179.704 552.062 170.726C552.062 161.749 544.785 154.471 535.808 154.471C526.832 154.471 519.555 161.749 519.555 170.726C519.555 179.704 526.832 186.981 535.808 186.981Z" fill="black"/>
<path d="M535.808 329.137C563.455 329.137 585.866 306.723 585.866 279.074C585.866 251.424 563.455 229.01 535.808 229.01C508.162 229.01 485.75 251.424 485.75 279.074C485.75 306.723 508.162 329.137 535.808 329.137Z" fill="black"/>
<path d="M535.808 400.957C543.283 400.957 549.342 394.897 549.342 387.421C549.342 379.946 543.283 373.886 535.808 373.886C528.333 373.886 522.274 379.946 522.274 387.421C522.274 394.897 528.333 400.957 535.808 400.957Z" fill="black"/>
<path d="M535.808 518.761C548.505 518.761 558.798 508.467 558.798 495.769C558.798 483.071 548.505 472.777 535.808 472.777C523.111 472.777 512.818 483.071 512.818 495.769C512.818 508.467 523.111 518.761 535.808 518.761Z" fill="black"/>
<path d="M645.318 177.525C649.073 177.525 652.116 174.481 652.116 170.726C652.116 166.971 649.073 163.927 645.318 163.927C641.564 163.927 638.52 166.971 638.52 170.726C638.52 174.481 641.564 177.525 645.318 177.525Z" fill="black"/>
<path d="M426.051 199.157C441.751 199.157 454.479 186.428 454.479 170.726C454.479 155.024 441.751 142.295 426.051 142.295C410.35 142.295 397.622 155.024 397.622 170.726C397.622 186.428 410.35 199.157 426.051 199.157Z" fill="black"/>
<path d="M426.051 292.609C433.525 292.609 439.585 286.549 439.585 279.074C439.585 271.598 433.525 265.538 426.051 265.538C418.576 265.538 412.516 271.598 412.516 279.074C412.516 286.549 418.576 292.609 426.051 292.609Z" fill="black"/>
<path d="M426.051 394.22C429.805 394.22 432.849 391.176 432.849 387.421C432.849 383.666 429.805 380.623 426.051 380.623C422.296 380.623 419.253 383.666 419.253 387.421C419.253 391.176 422.296 394.22 426.051 394.22Z" fill="black"/>
<path d="M426.051 502.568C429.805 502.568 432.849 499.524 432.849 495.769C432.849 492.014 429.805 488.97 426.051 488.97C422.296 488.97 419.253 492.014 419.253 495.769C419.253 499.524 422.296 502.568 426.051 502.568Z" fill="black"/>
<path d="M316.479 207.254C336.65 207.254 353.003 190.9 353.003 170.726C353.003 150.552 336.65 134.198 316.479 134.198C296.307 134.198 279.955 150.552 279.955 170.726C279.955 190.9 296.307 207.254 316.479 207.254Z" fill="black"/>
<path d="M316.479 308.865C332.93 308.865 346.266 295.527 346.266 279.074C346.266 262.621 332.93 249.283 316.479 249.283C300.027 249.283 286.691 262.621 286.691 279.074C286.691 295.527 300.027 308.865 316.479 308.865Z" fill="black"/>
<path d="M316.479 403.677C325.455 403.677 332.732 396.399 332.732 387.421C332.732 378.444 325.455 371.166 316.479 371.166C307.502 371.166 300.225 378.444 300.225 387.421C300.225 396.399 307.502 403.677 316.479 403.677Z" fill="black"/>
<path d="M316.479 524.2C332.179 524.2 344.907 511.471 344.907 495.769C344.907 480.067 332.179 467.338 316.479 467.338C300.778 467.338 288.05 480.067 288.05 495.769C288.05 511.471 300.778 524.2 316.479 524.2Z" fill="black"/>
<path d="M316.479 654.18C344.125 654.18 366.537 631.766 366.537 604.117C366.537 576.467 344.125 554.053 316.479 554.053C288.832 554.053 266.42 576.467 266.42 604.117C266.42 631.766 288.832 654.18 316.479 654.18Z" fill="black"/>
<path d="M316.479 726C323.953 726 330.013 719.94 330.013 712.464C330.013 704.989 323.953 698.928 316.479 698.928C309.004 698.928 302.944 704.989 302.944 712.464C302.944 719.94 309.004 726 316.479 726Z" fill="black"/>
<path d="M206.721 217.452C232.524 217.452 253.442 196.532 253.442 170.726C253.442 144.92 232.524 124 206.721 124C180.918 124 160 144.92 160 170.726C160 196.532 180.918 217.452 206.721 217.452Z" fill="black"/>
<path d="M206.721 308.185C222.797 308.185 235.829 295.151 235.829 279.074C235.829 262.996 222.797 249.963 206.721 249.963C190.645 249.963 177.613 262.996 177.613 279.074C177.613 295.151 190.645 308.185 206.721 308.185Z" fill="black"/>
<path d="M206.721 415.853C222.422 415.853 235.149 403.123 235.149 387.421C235.149 371.719 222.422 358.99 206.721 358.99C191.021 358.99 178.293 371.719 178.293 387.421C178.293 403.123 191.021 415.853 206.721 415.853Z" fill="black"/>
<path d="M206.721 521.481C220.92 521.481 232.43 509.969 232.43 495.769C232.43 481.569 220.92 470.057 206.721 470.057C192.522 470.057 181.012 481.569 181.012 495.769C181.012 509.969 192.522 521.481 206.721 521.481Z" fill="black"/>
<path d="M206.721 627.109C219.418 627.109 229.711 616.815 229.711 604.117C229.711 591.418 219.418 581.124 206.721 581.124C194.024 581.124 183.731 591.418 183.731 604.117C183.731 616.815 194.024 627.109 206.721 627.109Z" fill="black"/>
<path d="M206.721 719.201C210.441 719.201 213.457 716.185 213.457 712.464C213.457 708.744 210.441 705.727 206.721 705.727C203.001 705.727 199.985 708.744 199.985 712.464C199.985 716.185 203.001 719.201 206.721 719.201Z" fill="black"/>
<path d="M645.318 292.609C652.793 292.609 658.853 286.549 658.853 279.074C658.853 271.598 652.793 265.538 645.318 265.538C637.844 265.538 631.784 271.598 631.784 279.074C631.784 286.549 637.844 292.609 645.318 292.609Z" fill="black"/>
<path d="M645.318 432.108C669.995 432.108 690 412.101 690 387.421C690 362.742 669.995 342.735 645.318 342.735C620.641 342.735 600.637 362.742 600.637 387.421C600.637 412.101 620.641 432.108 645.318 432.108Z" fill="black"/>
<path d="M645.318 525.56C661.77 525.56 675.106 512.222 675.106 495.769C675.106 479.316 661.77 465.978 645.318 465.978C628.867 465.978 615.531 479.316 615.531 495.769C615.531 512.222 628.867 525.56 645.318 525.56Z" fill="black"/>
</g>
<defs>
<clipPath id="clip0_5_4">
<rect width="1125" height="850" fill="white"/>
</clipPath>
</defs>
</svg>
