<?xml version="1.0" encoding="UTF-8" standalone="no"?>
<!-- Created with Inkscape (http://www.inkscape.org/) -->

<svg
   width="210mm"
   height="210mm"
   viewBox="0 0 210 210"
   version="1.1"
   id="svg318"
   sodipodi:docname="lofiwkndyvr.svg"
   inkscape:version="1.2.2 (b0a84865, 2022-12-01)"
   xmlns:inkscape="http://www.inkscape.org/namespaces/inkscape"
   xmlns:sodipodi="http://sodipodi.sourceforge.net/DTD/sodipodi-0.dtd"
   xmlns="http://www.w3.org/2000/svg"
   xmlns:svg="http://www.w3.org/2000/svg">
  <sodipodi:namedview
     id="namedview320"
     pagecolor="#ffffff"
     bordercolor="#000000"
     borderopacity="0.25"
     inkscape:showpageshadow="2"
     inkscape:pageopacity="0.0"
     inkscape:pagecheckerboard="0"
     inkscape:deskcolor="#d1d1d1"
     inkscape:document-units="mm"
     showgrid="false"
     inkscape:zoom="0.914906"
     inkscape:cx="291.28676"
     inkscape:cy="561.80635"
     inkscape:window-width="1492"
     inkscape:window-height="896"
     inkscape:window-x="10"
     inkscape:window-y="48"
     inkscape:window-maximized="0"
     inkscape:current-layer="layer1" />
  <defs
     id="defs315" />
  <g
     inkscape:label="Layer 1"
     inkscape:groupmode="layer"
     id="layer1">
    <g
       id="+++--favicon"
       stroke="none"
       stroke-width="1"
       fill="none"
       fill-rule="evenodd"
       style="fill:#ffffff;fill-opacity:1"
       transform="matrix(1.2744816,0,0,1.2744816,49.999747,5.974464)">
      <g
         id="IPDB-favicon---guide-Copy-3"
         transform="translate(-339,-314)"
         style="fill:#ffffff;fill-opacity:1">
        <g
           id="DWeb-logo-original"
           transform="translate(339,314)"
           style="fill:#ffffff;fill-opacity:1">
          <path
             d="m 63.844,7.6041 c 0,1.46 -1.185,2.645 -2.646,2.645 -1.459,0 -2.644,-1.185 -2.644,-2.645 0,-1.461 1.185,-2.645 2.644,-2.645 1.461,0 2.646,1.184 2.646,2.645"
             id="Fill-3"
             fill="#FCC924"
             style="fill:#ffffff;fill-opacity:1" />
          <path
             d="m 69.3537,25.2467 c 0,4.504 -3.651,8.155 -8.155,8.155 -4.504,0 -8.155,-3.651 -8.155,-8.155 0,-4.504 3.651,-8.155 8.155,-8.155 4.504,0 8.155,3.651 8.155,8.155"
             id="Fill-5"
             fill="#00D6C6"
             style="fill:#ffffff;fill-opacity:1" />
          <path
             d="m 63.4026,42.8898 c 0,1.217 -0.986,2.204 -2.204,2.204 -1.217,0 -2.204,-0.987 -2.204,-2.204 0,-1.217 0.987,-2.204 2.204,-2.204 1.218,0 2.204,0.987 2.204,2.204"
             id="Fill-7"
             fill="#00B3F2"
             style="fill:#ffffff;fill-opacity:1" />
          <path
             d="m 64.9455,60.5324 c 0,2.069 -1.678,3.747 -3.747,3.747 -2.069,0 -3.746,-1.678 -3.746,-3.747 0,-2.069 1.677,-3.747 3.746,-3.747 2.069,0 3.747,1.678 3.747,3.747"
             id="Fill-9"
             fill="#FCC924"
             style="fill:#ffffff;fill-opacity:1" />
          <path
             d="m 80.1379,7.6041 c 0,0.608 -0.493,1.102 -1.102,1.102 -0.608,0 -1.102,-0.494 -1.102,-1.102 0,-0.609 0.494,-1.102 1.102,-1.102 0.609,0 1.102,0.493 1.102,1.102"
             id="Fill-11"
             fill="#00B3F2"
             style="fill:#ffffff;fill-opacity:1" />
          <path
             d="m 47.9514,7.6041 c 0,2.556 -2.072,4.628 -4.629,4.628 -2.556,0 -4.628,-2.072 -4.628,-4.628 0,-2.556 2.072,-4.628 4.628,-4.628 2.557,0 4.629,2.072 4.629,4.628"
             id="Fill-13"
             fill="#BBE022"
             style="fill:#ffffff;fill-opacity:1" />
          <path
             d="m 45.5266,25.2467 c 0,1.217 -0.986,2.204 -2.204,2.204 -1.217,0 -2.204,-0.987 -2.204,-2.204 0,-1.217 0.987,-2.204 2.204,-2.204 1.218,0 2.204,0.987 2.204,2.204"
             id="Fill-15"
             fill="#E16EF9"
             style="fill:#ffffff;fill-opacity:1" />
          <path
             d="m 44.425,42.8898 c 0,0.608 -0.494,1.102 -1.103,1.102 -0.608,0 -1.101,-0.494 -1.101,-1.102 0,-0.609 0.493,-1.102 1.101,-1.102 0.609,0 1.103,0.493 1.103,1.102"
             id="Fill-17"
             fill="#00B3F2"
             style="fill:#ffffff;fill-opacity:1" />
          <path
             d="m 44.425,60.5324 c 0,0.609 -0.494,1.102 -1.103,1.102 -0.608,0 -1.101,-0.493 -1.101,-1.102 0,-0.608 0.493,-1.102 1.101,-1.102 0.609,0 1.103,0.494 1.103,1.102"
             id="Fill-19"
             fill="#FF4F2C"
             style="fill:#ffffff;fill-opacity:1" />
          <path
             d="m 31.4309,7.6041 c 0,3.287 -2.664,5.951 -5.95,5.951 -3.287,0 -5.951,-2.664 -5.951,-5.951 0,-3.287 2.664,-5.951 5.951,-5.951 3.286,0 5.95,2.664 5.95,5.951"
             id="Fill-21"
             fill="#E16EF9"
             style="fill:#ffffff;fill-opacity:1" />
          <path
             d="m 30.3293,25.2467 c 0,2.678 -2.171,4.849 -4.849,4.849 -2.678,0 -4.849,-2.171 -4.849,-4.849 0,-2.678 2.171,-4.849 4.849,-4.849 2.678,0 4.849,2.171 4.849,4.849"
             id="Fill-23"
             fill="#FF4F2C"
             style="fill:#ffffff;fill-opacity:1" />
          <path
             d="m 28.1252,42.8898 c 0,1.46 -1.185,2.645 -2.645,2.645 -1.46,0 -2.645,-1.185 -2.645,-2.645 0,-1.461 1.185,-2.645 2.645,-2.645 1.46,0 2.645,1.184 2.645,2.645"
             id="Fill-25"
             fill="#E16EF9"
             style="fill:#ffffff;fill-opacity:1" />
          <path
             d="m 30.1086,60.5324 c 0,2.556 -2.072,4.628 -4.628,4.628 -2.557,0 -4.629,-2.072 -4.629,-4.628 0,-2.556 2.072,-4.628 4.629,-4.628 2.556,0 4.628,2.072 4.628,4.628"
             id="Fill-27"
             fill="#00B3F2"
             style="fill:#ffffff;fill-opacity:1" />
          <path
             d="m 33.635,78.1749 c 0,4.504 -3.65,8.155 -8.154,8.155 -4.504,0 -8.156,-3.651 -8.156,-8.155 0,-4.504 3.652,-8.155 8.156,-8.155 4.504,0 8.154,3.651 8.154,8.155"
             id="Fill-29"
             fill="#BBE022"
             style="fill:#ffffff;fill-opacity:1" />
          <path
             d="m 27.6848,95.818 c 0,1.217 -0.987,2.204 -2.204,2.204 -1.218,0 -2.204,-0.987 -2.204,-2.204 0,-1.217 0.986,-2.204 2.204,-2.204 1.217,0 2.204,0.987 2.204,2.204"
             id="Fill-31"
             fill="#BBE022"
             style="fill:#ffffff;fill-opacity:1" />
          <path
             d="m 15.2082,7.6041 c 0,4.2 -3.404,7.604 -7.604,7.604 -4.2,0 -7.604,-3.404 -7.604,-7.604 0,-4.2 3.404,-7.604 7.604,-7.604 4.2,0 7.604,3.404 7.604,7.604"
             id="Fill-33"
             fill="#FF4F2C"
             style="fill:#ffffff;fill-opacity:1" />
          <path
             d="m 12.343,25.2467 c 0,2.617 -2.122,4.739 -4.739,4.739 -2.617,0 -4.739,-2.122 -4.739,-4.739 0,-2.617 2.122,-4.739 4.739,-4.739 2.617,0 4.739,2.122 4.739,4.739"
             id="Fill-35"
             fill="#BBE022"
             style="fill:#ffffff;fill-opacity:1" />
          <path
             d="m 12.2326,42.8898 c 0,2.556 -2.072,4.628 -4.629,4.628 -2.556,0 -4.628,-2.072 -4.628,-4.628 0,-2.557 2.072,-4.629 4.628,-4.629 2.557,0 4.629,2.072 4.629,4.629"
             id="Fill-37"
             fill="#FCC924"
             style="fill:#ffffff;fill-opacity:1" />
          <path
             d="m 11.7922,60.5324 c 0,2.313 -1.875,4.188 -4.188,4.188 -2.313,0 -4.188,-1.875 -4.188,-4.188 0,-2.313 1.875,-4.187 4.188,-4.187 2.313,0 4.188,1.874 4.188,4.187"
             id="Fill-39"
             fill="#FF4F2C"
             style="fill:#ffffff;fill-opacity:1" />
          <path
             d="m 11.3508,78.1749 c 0,2.07 -1.678,3.747 -3.747,3.747 -2.069,0 -3.747,-1.677 -3.747,-3.747 0,-2.069 1.678,-3.747 3.747,-3.747 2.069,0 3.747,1.678 3.747,3.747"
             id="Fill-41"
             fill="#E16EF9"
             style="fill:#ffffff;fill-opacity:1" />
          <path
             d="m 9.8078,95.818 c 0,1.217 -0.986,2.204 -2.204,2.204 -1.217,0 -2.204,-0.987 -2.204,-2.204 0,-1.217 0.987,-2.204 2.204,-2.204 1.218,0 2.204,0.987 2.204,2.204"
             id="Fill-43"
             fill="#00B3F2"
             style="fill:#ffffff;fill-opacity:1" />
          <path
             d="m 81.2404,25.2467 c 0,1.217 -0.987,2.204 -2.204,2.204 -1.218,0 -2.204,-0.987 -2.204,-2.204 0,-1.217 0.986,-2.204 2.204,-2.204 1.217,0 2.204,0.987 2.204,2.204"
             id="Fill-45"
             fill="#FCC924"
             style="fill:#ffffff;fill-opacity:1" />
          <path
             d="m 86.3098,42.8898 c 0,4.017 -3.257,7.273 -7.273,7.273 -4.018,0 -7.274,-3.256 -7.274,-7.273 0,-4.017 3.256,-7.273 7.274,-7.273 4.016,0 7.273,3.256 7.273,7.273"
             id="Fill-47"
             fill="#FF4F2C"
             style="fill:#ffffff;fill-opacity:1" />
          <path
             d="m 83.885,60.5324 c 0,2.678 -2.171,4.849 -4.849,4.849 -2.677,0 -4.848,-2.171 -4.848,-4.849 0,-2.678 2.171,-4.849 4.848,-4.849 2.678,0 4.849,2.171 4.849,4.849"
             id="Fill-49"
             fill="#BBE022"
             style="fill:#ffffff;fill-opacity:1" />
          <polygon
             id="Fill-53"
             fill="#FFFFFF"
             points="85.6428,95.5483 40.4798,95.5483 40.4798,72.2443 85.1148,72.2443 85.1148,96.0773 85.6428,96.0773 85.6428,95.5483 85.6428,96.0773 86.1718,96.0773 86.1718,71.1863 39.4218,71.1863 39.4218,96.6063 86.1718,96.6063 86.1718,96.0773 85.6428,96.0773 "
             style="fill:#ffffff;fill-opacity:1" />
          <path
             d="m 73.0217,83.0861 c -0.473,0.581 -0.739,1.407 -0.739,2.383 0,0.977 0.266,1.808 0.739,2.393 0.474,0.585 1.151,0.927 1.989,0.927 0.911,0 1.634,-0.321 2.133,-0.894 0.499,-0.574 0.774,-1.404 0.774,-2.426 0,-1.021 -0.275,-1.846 -0.774,-2.415 -0.499,-0.569 -1.222,-0.885 -2.133,-0.886 -0.838,0.001 -1.516,0.338 -1.989,0.918 z m 6.518,2.383 c 0,1.487 -0.392,2.7 -1.123,3.542 -0.731,0.843 -1.8,1.310001 -3.137,1.310001 -1.379,9.99e-4 -2.281,-0.544001 -2.848,-1.367001 l -0.345,1.278 h -1.247 v -12.76 h 1.573 0.048 v 4.49 c 0.569,-0.785 1.462,-1.327 2.819,-1.326 1.31,0 2.379,0.462 3.116,1.3 0.738,0.838 1.144,2.046 1.144,3.533 z m -18.616,-0.909 h 5.488 c -0.012,-0.641 -0.25,-1.236 -0.687,-1.674 -0.447,-0.449 -1.1,-0.736 -1.932,-0.736 -0.936,0 -1.653,0.357 -2.137,0.843 -0.469,0.471 -0.716,1.064 -0.732,1.567 z m 5.951,-2.644 c 0.697,0.799 1.071,1.914 1.071,3.177 0,0.596 -0.072,0.816 -0.074,0.823 l -0.012,0.033 h -7.043 c 0.012,0.613 0.248,1.323 0.729,1.883 0.494,0.574 1.24,0.992 2.266,0.993 1.164,0 2.189,-0.6 2.826,-1.503 l 0.027,-0.037 1.171,0.73 -0.021,0.04 c -0.69,1.289 -2.212,2.265 -4.003,2.266 -1.363,0 -2.503,-0.439 -3.3,-1.265 -0.797,-0.826 -1.248,-2.036 -1.248,-3.569 0,-1.488 0.488,-2.703 1.312,-3.544 0.822,-0.841 1.978,-1.307 3.307,-1.307 1.276,0 2.294,0.481 2.992,1.28 z m -10.849,-4.416 h 1.642 l -1.897,12.732 h -1.1 -0.7 l -1.612,-5.771 h -0.017 -0.016 l -1.614,5.771 h -0.7 -1.056 -0.043 l -1.896,-12.732 h 1.641 l 1.362,10.214 h 0.009 l 1.612,-6.092 h 0.701 0.701 l 1.613,6.092 h 0.008 z"
             id="Fill-54"
             fill="#FFFFFF"
             style="fill:#ffffff;fill-opacity:1" />
          <path
             d="m 83.885,60.5324 c 0,2.678 -2.171,4.849 -4.849,4.849 -2.677,0 -4.848,-2.171 -4.848,-4.849 0,-2.678 2.171,-4.849 4.848,-4.849 2.678,0 4.849,2.171 4.849,4.849"
             id="Fill-55"
             fill="#BBE022"
             style="fill:#ffffff;fill-opacity:1" />
        </g>
      </g>
    </g>
    <text
       xml:space="preserve"
       style="font-size:25.4px;font-family:overpass;-inkscape-font-specification:overpass;fill:#ffffff;stroke-width:1.21313;fill-opacity:1"
       x="19.630697"
       y="171.60753"
       id="text662"><tspan
         sodipodi:role="line"
         id="tspan660"
         style="font-style:normal;font-variant:normal;font-weight:normal;font-stretch:normal;font-size:25.4px;font-family:'Overpass Mono';-inkscape-font-specification:'Overpass Mono';stroke-width:1.21313;fill:#ffffff;fill-opacity:1"
         x="19.630697"
         y="171.60753">#lofiwkndyvr</tspan></text>
    <text
       xml:space="preserve"
       style="font-style:normal;font-variant:normal;font-weight:normal;font-stretch:normal;font-size:22.5778px;font-family:'Overpass Mono';-inkscape-font-specification:'Overpass Mono';fill:#ffffff;stroke-width:1.21313;fill-opacity:1"
       x="77.09951"
       y="196.94301"
       id="text716"><tspan
         sodipodi:role="line"
         id="tspan714"
         style="font-size:22.5778px;stroke-width:1.21313;fill:#ffffff;fill-opacity:1"
         x="77.09951"
         y="196.94301">2025</tspan></text>
  </g>
</svg>
